<mxfile host="app.diagrams.net" modified="2023-06-03T18:27:28.103Z" agent="Mozilla/5.0 (Windows NT 10.0; Win64; x64; rv:109.0) Gecko/20100101 Firefox/113.0" etag="9iLq2qKWcU8_cERjaGVn" version="21.3.5" type="github">
  <diagram name="Page-1" id="3jmH4XqKZqVhs7f77H0M">
    <mxGraphModel dx="1434" dy="1874" grid="1" gridSize="10" guides="1" tooltips="1" connect="1" arrows="1" fold="1" page="1" pageScale="1" pageWidth="850" pageHeight="1100" math="0" shadow="0">
      <root>
        <mxCell id="0" />
        <mxCell id="1" parent="0" />
        <mxCell id="xbbyLbelvvUoY1kUlQGD-13" value="" style="rounded=0;whiteSpace=wrap;html=1;fillColor=#bac8d3;strokeColor=#23445d;" vertex="1" parent="1">
          <mxGeometry x="70" y="-90" width="710" height="350" as="geometry" />
        </mxCell>
        <mxCell id="xbbyLbelvvUoY1kUlQGD-1" value="" style="rounded=0;whiteSpace=wrap;html=1;fillColor=#bac8d3;strokeColor=#23445d;" vertex="1" parent="1">
          <mxGeometry x="70" y="310" width="710" height="350" as="geometry" />
        </mxCell>
        <mxCell id="xbbyLbelvvUoY1kUlQGD-2" value="SIS_PROD" style="rounded=1;whiteSpace=wrap;html=1;fillColor=#fad7ac;strokeColor=#b46504;" vertex="1" parent="1">
          <mxGeometry x="315" y="400" width="220" height="170" as="geometry" />
        </mxCell>
        <mxCell id="xbbyLbelvvUoY1kUlQGD-3" value="Notification" style="rounded=1;whiteSpace=wrap;html=1;fillColor=#fad9d5;strokeColor=#ae4132;" vertex="1" parent="1">
          <mxGeometry x="95" y="-60" width="120" height="60" as="geometry" />
        </mxCell>
        <mxCell id="xbbyLbelvvUoY1kUlQGD-4" value="" style="rounded=1;whiteSpace=wrap;html=1;fillColor=#fad9d5;strokeColor=#ae4132;" vertex="1" parent="1">
          <mxGeometry x="635" y="-60" width="120" height="60" as="geometry" />
        </mxCell>
        <mxCell id="xbbyLbelvvUoY1kUlQGD-5" value="" style="rounded=1;whiteSpace=wrap;html=1;fillColor=#fad9d5;strokeColor=#ae4132;" vertex="1" parent="1">
          <mxGeometry x="185" y="40" width="120" height="60" as="geometry" />
        </mxCell>
        <mxCell id="xbbyLbelvvUoY1kUlQGD-6" value="" style="rounded=1;whiteSpace=wrap;html=1;fillColor=#fad9d5;strokeColor=#ae4132;" vertex="1" parent="1">
          <mxGeometry x="275" y="-60" width="120" height="60" as="geometry" />
        </mxCell>
        <mxCell id="xbbyLbelvvUoY1kUlQGD-7" value="" style="rounded=1;whiteSpace=wrap;html=1;fillColor=#fad9d5;strokeColor=#ae4132;" vertex="1" parent="1">
          <mxGeometry x="455" y="-60" width="120" height="60" as="geometry" />
        </mxCell>
        <mxCell id="xbbyLbelvvUoY1kUlQGD-8" value="" style="rounded=1;whiteSpace=wrap;html=1;fillColor=#fad9d5;strokeColor=#ae4132;" vertex="1" parent="1">
          <mxGeometry x="565" y="30" width="120" height="60" as="geometry" />
        </mxCell>
      </root>
    </mxGraphModel>
  </diagram>
</mxfile>
